# xmcd CD database file
#
# Track frame offsets:
#	150
#	22569
#	36020
#	52293
#	77699
#	101000
#	122927
#	145696
#	170338
#	196197
#	220664
#	246216
#	263291
#	286564
#	311642
#
# Disc length: 4394 seconds
#
# Revision: 0
# Processed by: cddbd v1.5.2PL0 Copyright (c) Steve Scherf et al.
# Submitted via: CDex 1.51
#
DISCID=c011280f
DTITLE=Jazz - Urban Jazz grooves 
DYEAR=1900
DGENRE=Jazz
TTITLE0=Larry Carlton - Fingerprints
TTITLE1=LSK - Hate or Love?
TTITLE2=Martine Girault  - Revival
TTITLE3=George Benson - Breezin'
TTITLE4=Fourplay - 101 Eastbound
TTITLE5=Norman Brown - Out'a Nowhere
TTITLE6=Bill Withers and Grover Washington, Jr. - Just the Two of Us
TTITLE7=Luther Vandross  - I'm Only Human
TTITLE8=D'Angelo - When We Get By
TTITLE9=Eric Benet  - Why You Follow Me
TTITLE10=Jhelisa - Friendly Pressure
TTITLE11=Bob James - Angela
TTITLE12=Erykah Badu - On and on
TTITLE13=Angel Lee - Sisters
TTITLE14=David Sanborn - Daydreaming
EXTD=
EXTT0=
EXTT1=
EXTT2=
EXTT3=
EXTT4=
EXTT5=
EXTT6=
EXTT7=
EXTT8=
EXTT9=
EXTT10=
EXTT11=
EXTT12=
EXTT13=
EXTT14=
PLAYORDER=
